<?xml version="1.0" standalone="no"?>
<!DOCTYPE svg PUBLIC "-//W3C//DTD SVG 20010904//EN"
 "http://www.w3.org/TR/2001/REC-SVG-20010904/DTD/svg10.dtd">
<svg version="1.0" xmlns="http://www.w3.org/2000/svg"
 width="834.000000pt" height="834.000000pt" viewBox="0 0 834.000000 834.000000"
 preserveAspectRatio="xMidYMid meet">
<metadata>
Created by potrace 1.11, written by Peter Selinger 2001-2013
</metadata>
<g transform="translate(0.000000,834.000000) scale(0.100000,-0.100000)"
fill="#000000" stroke="none">
<path d="M3076 7598 c-5 -25 -86 -1333 -86 -1385 l0 -33 1175 0 1175 0 0 23
c1 41 -81 1352 -86 1385 l-5 32 -1084 0 -1085 0 -4 -22z"/>
<path d="M809 6520 c-99 -17 -202 -95 -250 -190 -34 -67 -38 -186 -9 -262 24
-65 91 -144 144 -173 l36 -20 0 -686 0 -687 -93 -50 c-158 -86 -248 -151 -348
-251 -107 -107 -151 -181 -171 -289 -56 -302 279 -610 907 -832 175 -62 529
-160 577 -160 17 0 18 46 18 930 0 758 -2 930 -13 930 -39 0 -485 -125 -593
-167 -12 -4 -14 87 -14 630 l0 636 22 7 c35 11 118 95 143 144 13 25 28 70 33
100 41 225 -161 428 -389 390z"/>
<path d="M7401 6519 c-215 -42 -332 -268 -246 -473 20 -48 106 -140 145 -156
l30 -12 0 -635 c0 -543 -2 -634 -14 -630 -106 41 -556 167 -595 167 -8 0 -11
-178 -11 -657 l0 -658 -45 -90 c-25 -49 -53 -119 -62 -155 -22 -86 -22 -264 0
-345 l16 -60 -61 -62 -62 -63 -28 27 -28 26 -2 1491 -3 1491 -22 41 c-29 54
-101 117 -151 132 -57 17 -4137 17 -4194 0 -50 -15 -122 -78 -151 -132 l-22
-41 0 -2085 c0 -2001 1 -2086 18 -2122 26 -52 83 -107 136 -132 l46 -21 1455
-3 1454 -2 26 -25 c68 -65 158 -69 228 -10 l40 35 296 0 c218 0 296 -3 296
-12 0 -6 -76 -88 -169 -182 -180 -182 -198 -211 -188 -288 6 -45 46 -102 87
-123 68 -35 251 -9 385 55 145 70 256 179 327 322 45 91 65 168 74 278 3 47
12 107 20 134 8 27 14 84 14 126 0 72 2 78 30 105 l31 29 64 -64 64 -65 -14
-54 c-114 -430 199 -863 640 -888 76 -4 95 -2 125 15 69 38 103 120 80 195
-10 33 -47 78 -184 217 -176 179 -196 208 -196 282 0 83 78 185 156 207 116
32 168 5 359 -189 83 -83 162 -158 177 -166 35 -18 121 -18 158 1 16 8 41 32
55 52 21 32 25 49 25 114 0 193 -99 399 -253 527 -70 58 -216 129 -302 147
-93 19 -217 19 -310 -2 l-76 -16 -65 64 -64 64 63 63 63 63 59 -16 c88 -22
262 -20 353 5 201 56 359 186 454 374 66 131 90 333 47 403 -40 65 -142 92
-212 57 -18 -9 -106 -89 -197 -179 -182 -179 -200 -190 -300 -183 -86 6 -166
70 -185 148 -6 25 -2 26 127 69 432 141 750 324 893 513 124 164 143 310 62
478 -64 132 -272 310 -485 415 l-81 40 0 690 -1 690 36 20 c53 28 120 108 143
171 28 73 28 166 -1 241 -54 146 -225 242 -377 212z m-1883 -1234 c374 -89
643 -431 642 -817 -1 -222 -85 -423 -244 -584 -81 -82 -158 -134 -197 -134
-54 0 -88 -13 -133 -50 -60 -50 -138 -65 -302 -58 -99 4 -135 11 -214 37 -159
53 -294 145 -388 263 -243 306 -254 704 -27 1023 123 173 333 300 558 336 69
11 227 2 305 -16z m-2283 -15 c319 -101 534 -346 591 -672 49 -281 -70 -592
-298 -778 -79 -64 -218 -134 -323 -161 -113 -30 -298 -30 -410 0 -283 76 -504
290 -595 576 -34 107 -39 301 -11 418 74 312 307 548 618 627 109 28 326 23
428 -10z m2629 -1636 c154 -37 320 -171 389 -314 55 -112 70 -184 65 -309 -3
-74 -11 -124 -26 -166 l-21 -60 388 -388 388 -389 67 21 c347 107 717 -106
791 -455 30 -143 13 -204 -56 -204 -27 0 -55 23 -203 168 -149 147 -178 172
-229 190 -119 45 -248 19 -334 -66 -68 -68 -88 -119 -88 -222 0 -125 16 -152
211 -350 89 -91 163 -172 165 -180 7 -32 -11 -68 -40 -80 -37 -15 -121 -5
-222 26 -322 101 -502 463 -390 785 l19 56 -387 387 -388 388 -74 -24 c-103
-32 -264 -33 -364 -1 -250 79 -434 319 -435 566 0 67 22 97 71 97 26 0 56 -24
207 -173 155 -153 184 -176 231 -192 71 -23 189 -17 248 13 103 53 167 160
168 277 0 122 -15 146 -212 346 -118 121 -173 183 -173 198 0 32 18 61 43 71
27 10 111 3 191 -16z m1472 18 c15 -10 34 -47 34 -68 0 -9 -76 -94 -169 -188
-196 -198 -214 -226 -215 -346 -1 -82 16 -138 61 -197 60 -79 181 -131 277
-119 101 13 147 44 326 221 177 176 194 186 238 145 45 -42 21 -206 -50 -343
-79 -152 -235 -273 -404 -313 -93 -22 -245 -15 -333 15 l-64 22 -84 -83 -83
-83 -155 155 -155 155 84 85 84 85 -20 55 c-29 79 -36 262 -13 350 54 209 240
395 441 444 64 15 182 20 200 8z m-2336 -705 c0 -43 31 -142 69 -222 87 -184
259 -325 459 -376 111 -28 278 -25 385 7 15 5 17 -5 17 -112 l0 -116 -32 6
c-220 47 -354 32 -533 -59 l-110 -55 -1427 0 -1428 0 0 475 0 475 1300 0 1300
0 0 -23z m910 18 c0 -15 -31 -63 -57 -87 -61 -58 -162 -75 -238 -39 -22 10
-65 44 -95 75 l-54 56 222 0 c122 0 222 -2 222 -5z m367 -937 l153 -153 -85
-85 -84 -85 22 -60 c19 -51 22 -80 22 -200 -1 -127 -3 -146 -27 -207 -91 -230
-291 -382 -528 -404 -85 -7 -113 6 -126 59 -6 25 7 41 160 196 197 201 221
239 221 361 -1 100 -29 163 -102 230 -68 62 -136 85 -232 78 -101 -7 -137 -32
-321 -214 -154 -152 -168 -164 -202 -164 -70 0 -86 75 -48 225 27 107 80 197
164 280 170 170 398 223 634 149 l54 -17 81 81 c45 45 84 82 87 82 3 0 73 -69
157 -152z"/>
<path d="M5180 5054 c-200 -52 -358 -201 -426 -401 -38 -111 -38 -255 0 -366
86 -253 311 -417 571 -417 171 0 298 53 420 175 92 91 136 165 165 281 36 141
18 294 -52 427 -46 88 -173 212 -261 255 -37 18 -95 39 -130 47 -78 18 -215
18 -287 -1z m292 -282 c62 -31 121 -89 155 -154 25 -47 28 -64 28 -148 0 -89
-2 -99 -34 -158 -52 -95 -128 -152 -231 -170 -153 -27 -302 50 -366 191 -76
168 -2 362 169 443 45 22 63 24 142 22 70 -2 101 -8 137 -26z"/>
<path d="M2843 5051 c-203 -58 -346 -199 -419 -411 -26 -77 -26 -262 0 -340
66 -195 203 -337 386 -401 88 -30 241 -37 331 -15 166 42 316 157 391 301 183
351 -5 773 -387 870 -79 20 -224 18 -302 -4z m294 -275 c110 -52 185 -155 199
-278 10 -84 -22 -181 -82 -247 -161 -179 -438 -143 -551 71 -25 47 -28 63 -28
148 0 81 4 102 24 140 35 67 59 95 107 130 63 45 109 59 199 59 64 1 90 -4
132 -23z"/>
</g>
</svg>
