<?xml version="1.0" standalone="no"?>
<!DOCTYPE svg PUBLIC "-//W3C//DTD SVG 20010904//EN"
 "http://www.w3.org/TR/2001/REC-SVG-20010904/DTD/svg10.dtd">
<svg version="1.0" xmlns="http://www.w3.org/2000/svg"
 width="834.000000pt" height="834.000000pt" viewBox="0 0 834.000000 834.000000"
 preserveAspectRatio="xMidYMid meet">
<metadata>
Created by potrace 1.11, written by Peter Selinger 2001-2013
</metadata>
<g transform="translate(0.000000,834.000000) scale(0.100000,-0.100000)"
fill="#000000" stroke="none">
<path d="M3069 7670 c-1 -19 -3 -46 -4 -60 -2 -14 -6 -83 -10 -155 -3 -71 -8
-146 -10 -165 -2 -19 -6 -87 -10 -150 -3 -63 -8 -135 -10 -160 -2 -25 -7 -94
-10 -155 -3 -60 -8 -137 -10 -170 -10 -164 -16 -246 -21 -312 l-5 -73 33 -1
c43 0 2219 0 2281 0 44 1 47 3 43 24 -3 12 -8 74 -11 137 -3 63 -8 135 -10
160 -2 25 -6 95 -10 155 -3 61 -8 142 -10 180 -3 39 -7 106 -10 150 -2 44 -7
114 -10 155 -2 41 -7 111 -9 155 -14 242 -17 282 -21 300 -4 20 -12 20 -1090
20 l-1085 0 -1 -35z"/>
<path d="M759 6591 c-150 -49 -241 -180 -235 -337 5 -114 56 -205 154 -269 26
-17 42 -35 43 -49 0 -11 1 -321 2 -687 l2 -667 -84 -42 c-338 -172 -536 -397
-532 -605 2 -104 18 -153 78 -247 115 -177 365 -345 711 -479 59 -23 116 -45
127 -50 85 -36 570 -167 581 -156 3 3 6 421 6 928 0 691 -2 924 -11 927 -20 7
-300 -65 -451 -115 -41 -13 -93 -30 -115 -37 l-40 -13 0 629 0 629 49 36 c107
77 156 174 151 294 -4 95 -31 157 -99 224 -94 93 -219 125 -337 86z"/>
<path d="M7365 6595 c-60 -18 -97 -39 -143 -84 -151 -147 -128 -406 46 -521
l52 -34 0 -632 0 -632 -101 34 c-55 19 -166 52 -247 74 -146 40 -164 45 -232
56 l-35 6 0 -567 c0 -373 -3 -569 -10 -573 -16 -10 -246 -9 -252 2 -4 5 -7
473 -7 1040 -1 1027 -1 1031 -22 1077 -24 52 -71 101 -129 132 l-40 22 -2085
0 -2085 0 -50 -26 c-58 -30 -118 -103 -134 -163 -9 -30 -11 -603 -9 -2106 l3
-2065 22 -42 c29 -53 75 -97 133 -125 l45 -22 1687 0 1688 -1 0 -407 0 -408
1115 0 1115 0 1 1308 c0 719 0 1326 -1 1349 l-1 41 88 52 c191 112 318 233
384 367 38 77 43 94 45 167 2 63 -3 96 -21 148 -57 167 -235 335 -502 473
l-92 48 1 687 0 688 38 21 c147 83 207 290 128 444 -24 48 -96 127 -114 127
-8 0 -14 4 -14 8 0 16 -106 46 -165 48 -33 0 -78 -4 -100 -11z"/>
</g>
</svg>
