<?xml version="1.0" standalone="no"?>
<!DOCTYPE svg PUBLIC "-//W3C//DTD SVG 20010904//EN"
 "http://www.w3.org/TR/2001/REC-SVG-20010904/DTD/svg10.dtd">
<svg version="1.0" xmlns="http://www.w3.org/2000/svg"
 width="700.000000pt" height="700.000000pt" viewBox="0 0 700.000000 700.000000"
 preserveAspectRatio="xMidYMid meet">
<metadata>
Created by potrace 1.11, written by Peter Selinger 2001-2013
</metadata>
<g transform="translate(0.000000,700.000000) scale(0.100000,-0.100000)"
fill="#000000" stroke="none">
<path d="M2556 6363 c-3 -38 -20 -286 -36 -553 -16 -267 -32 -515 -35 -552
l-6 -68 1021 0 1021 0 -6 68 c-3 37 -19 285 -35 552 -16 267 -33 515 -36 553
l-6 67 -938 0 -938 0 -6 -67z"/>
<path d="M547 5466 c-145 -54 -222 -219 -171 -369 18 -52 82 -130 125 -153
l29 -15 0 -597 0 -597 -73 -39 c-526 -281 -602 -622 -204 -918 198 -146 484
-266 877 -368 85 -22 158 -40 163 -40 4 0 7 362 7 805 0 443 -2 805 -6 805
-18 0 -307 -77 -396 -106 -59 -18 -112 -34 -118 -34 -7 0 -10 181 -10 544 l0
544 28 17 c121 77 171 219 122 349 -26 67 -83 131 -145 161 -51 25 -175 31
-228 11z"/>
<path d="M6254 5468 c-60 -20 -127 -80 -159 -143 -26 -50 -30 -70 -30 -134 1
-110 43 -185 143 -251 l22 -15 -2 -546 -3 -546 -105 33 c-58 19 -168 50 -245
69 -77 20 -148 38 -157 41 -17 5 -18 -38 -18 -800 0 -443 3 -806 6 -806 28 0
361 93 487 137 434 149 708 341 784 550 81 223 -70 444 -434 639 l-73 39 0
597 0 597 29 15 c16 9 47 36 69 61 122 138 86 348 -75 442 -38 22 -60 27 -127
29 -45 2 -95 -2 -112 -8z"/>
<path d="M1685 4944 c-48 -18 -99 -65 -128 -119 l-22 -40 0 -1785 c0 -1700 1
-1787 18 -1832 20 -51 70 -101 126 -127 33 -15 194 -16 1816 -16 1473 0 1787
2 1818 14 50 17 103 64 130 115 l22 41 0 1795 c0 1714 -1 1797 -18 1831 -10
21 -34 53 -54 72 -71 72 69 67 -1897 66 -1525 0 -1777 -2 -1811 -15z m1030
-547 c114 -38 198 -90 290 -182 138 -138 208 -306 207 -500 0 -204 -65 -362
-207 -506 -143 -145 -305 -212 -510 -212 -252 0 -464 115 -605 329 -71 108
-102 213 -108 359 -5 144 11 223 68 340 93 193 260 329 470 385 109 29 284 23
395 -13z m1961 13 c210 -53 380 -191 474 -385 51 -105 70 -187 70 -311 0 -204
-66 -361 -215 -509 -73 -74 -106 -99 -175 -132 -121 -59 -194 -76 -325 -76
-205 0 -367 67 -510 212 -142 144 -207 302 -207 506 -1 394 316 712 713 714
64 1 122 -6 175 -19z m349 -2400 l0 -405 -1525 0 -1525 0 -3 395 c-1 217 0
401 3 408 3 10 313 12 1527 10 l1523 -3 0 -405z"/>
<path d="M2370 4215 c-174 -49 -319 -187 -370 -353 -27 -87 -27 -217 0 -304
62 -202 247 -349 457 -365 326 -25 598 264 553 590 -26 186 -171 359 -355 422
-70 24 -216 29 -285 10z m246 -244 c197 -87 226 -365 52 -491 -127 -92 -307
-68 -399 54 -43 57 -59 104 -59 178 0 210 211 345 406 259z"/>
<path d="M4385 4216 c-156 -42 -276 -139 -346 -281 -168 -342 85 -745 469
-745 215 0 428 159 492 368 27 87 27 217 0 304 -48 156 -178 288 -337 344 -64
22 -214 27 -278 10z m254 -253 c138 -71 191 -239 120 -382 -123 -245 -489
-193 -537 77 -10 57 0 138 24 184 73 141 248 195 393 121z"/>
</g>
</svg>
