<svg id="Layer_1" data-name="Layer 1" xmlns="http://www.w3.org/2000/svg" viewBox="0 0 388.5 388.87"><defs><style>.cls-1{fill:#ebf0f9;}.cls-2{fill:#bbd2e5;opacity:0.5;isolation:isolate;}.cls-3{fill:#28b1d5;}.cls-4{fill:#53c1dd;}.cls-5{fill:#fff;}.cls-6{fill:#404040;}.cls-7{fill:#f3aa9f;}.cls-8{fill:#e1978f;}.cls-9{fill:#6ae184;}.cls-10{fill:#389d9c;}.cls-11{fill:#ffa546;}.cls-12{fill:#ff894e;}.cls-13{fill:#f2f2f2;}.cls-14{fill:#c5c6ef;}.cls-15{fill:#abacf0;}.cls-16{fill:#ff7863;}.cls-17{fill:#ff880a;}.cls-18{fill:#00c929;}</style></defs><title>apps</title><rect class="cls-1" x="7" y="6" width="376.5" height="376.87" rx="69.74"/><path class="cls-2" d="M379.06,67.91c-8.35-8.94-18.74-14.26-30-14.26H26.27a37.93,37.93,0,0,0-21.62,7A70,70,0,0,1,72.75,6h237A70,70,0,0,1,379.06,67.91Z"/><rect class="cls-3" x="32.79" y="30.73" width="317.79" height="266.68" rx="51.33"/><path class="cls-4" d="M350.57,75.61v30.6c0-24.68-16.88-44.88-37.5-44.88H70.29c-20.62,0-37.5,20.2-37.5,44.88V75.61c0-24.68,16.88-44.88,37.5-44.88H313.08C333.7,30.73,350.57,50.92,350.57,75.61Z"/><ellipse class="cls-5" cx="332.82" cy="203.17" rx="3.83" ry="21.98" transform="translate(-3.01 5.02) rotate(-0.86)"/><ellipse class="cls-5" cx="333.36" cy="246.19" rx="3.83" ry="10.99" transform="translate(-3.66 5.03) rotate(-0.86)"/><path class="cls-6" d="M299.24,302.54H84.12A57.4,57.4,0,0,1,26.79,245.2V81.2A57.41,57.41,0,0,1,84.12,23.85H299.24a57.4,57.4,0,0,1,57.33,57.33v164A57.4,57.4,0,0,1,299.24,302.54ZM84.12,35.85A45.38,45.38,0,0,0,38.79,81.19v164a45.39,45.39,0,0,0,45.33,45.33H299.24a45.39,45.39,0,0,0,45.33-45.33v-164a45.39,45.39,0,0,0-45.33-45.33Z"/><path class="cls-6" d="M312.76,388.87h-237A75.83,75.83,0,0,1,0,313.13V75.74A75.83,75.83,0,0,1,75.74,0h237A75.83,75.83,0,0,1,388.5,75.74V313.13A75.83,75.83,0,0,1,312.76,388.87ZM75.74,12A63.81,63.81,0,0,0,12,75.74V313.13a63.81,63.81,0,0,0,63.74,63.74h237a63.81,63.81,0,0,0,63.74-63.74V75.74A63.81,63.81,0,0,0,312.76,12Z"/><rect class="cls-7" x="203.51" y="177.56" width="87.21" height="87.21" rx="9.45"/><path class="cls-8" d="M290.71,187v68.31a9.45,9.45,0,0,1-9.44,9.45H213a9.44,9.44,0,0,1-9.41-8.77h66a9.45,9.45,0,0,0,9.45-9.45h0V178.24a5.16,5.16,0,0,0,0-.68h2.28A9.45,9.45,0,0,1,290.71,187Z"/><rect class="cls-9" x="203.51" y="69.9" width="87.21" height="87.21" rx="9.45"/><path class="cls-10" d="M290.71,79.34v68.32a9.44,9.44,0,0,1-9.44,9.44H213a9.44,9.44,0,0,1-9.42-8.79l.65,0H272.5a9.44,9.44,0,0,0,9.44-9.44h0v-69A9.43,9.43,0,0,1,290.71,79.34Z"/><rect class="cls-11" x="94.62" y="177.56" width="87.21" height="87.21" rx="9.45"/><path class="cls-12" d="M181.83,187v68.31a9.45,9.45,0,0,1-9.45,9.45H104.07A9.44,9.44,0,0,1,94.65,256h66a9.45,9.45,0,0,0,9.44-9.45h0V178.24c0-.23,0-.45,0-.68h2.27A9.45,9.45,0,0,1,181.83,187Z"/><rect class="cls-13" x="94.62" y="69.9" width="87.21" height="87.21" rx="9.45"/><path class="cls-14" d="M181.83,79.34v68.32a9.45,9.45,0,0,1-9.45,9.44H104.07a9.45,9.45,0,0,1-9.43-8.79l.66,0h68.31a9.45,9.45,0,0,0,9.45-9.44h0v-69A9.45,9.45,0,0,1,181.83,79.34Z"/><path class="cls-15" d="M152.37,94.59a10.4,10.4,0,0,0-.92-.84,12.88,12.88,0,0,0-15.75-.14,12.86,12.86,0,0,0-15.77.15,12.59,12.59,0,0,0-1.74,17.72c.26.31.53.62.82.91l12.51,12.48a5.88,5.88,0,0,0,8.32,0h0l12.5-12.49A12.58,12.58,0,0,0,152.37,94.59Zm-5.06,12a4.13,4.13,0,0,1-.34.39l-11.28,11.25L124.41,107a5,5,0,0,1,0-7,3.8,3.8,0,0,1,.37-.33,4.65,4.65,0,0,1,3-1,5.61,5.61,0,0,1,3.93,1.64l4,4,4-4a5.27,5.27,0,0,1,6.94-.61A4.94,4.94,0,0,1,147.31,106.6Z"/><path class="cls-16" d="M240.63,212.27l5.14-11.12a3.82,3.82,0,0,0-6.81-3.47l-.12.27-10.14,22h17.39l-5.88,10.92a3.82,3.82,0,0,0,6.64,3.78l.09-.17,11.94-22.17Z"/><circle class="cls-17" cx="135.7" cy="216.07" r="7.64"/><path class="cls-17" d="M153.51,199.52h-4.37L148,197.26a4.35,4.35,0,0,0-4.08-2.83h-16.5a4.37,4.37,0,0,0-4.08,2.83l-1.11,2.26h-4.37a5.09,5.09,0,0,0-5.09,5.09v25.5a5.09,5.09,0,0,0,5.09,5.09h35.64a5.09,5.09,0,0,0,5.09-5.09v-25.5A5.09,5.09,0,0,0,153.51,199.52Zm-33.09,28v-20.4H127l2.1-4.26.41-.84h12.39l.42.86,2.11,4.24H151v20.4Z"/><path class="cls-18" d="M237.75,118.93V96.69l17.82-2.75v12.51a13.63,13.63,0,0,0-2.55-.27c-5.62,0-10.19,3.42-10.19,7.64s4.56,7.64,10.19,7.64,10.19-3.42,10.19-7.64V90.92a4.92,4.92,0,0,0-4.72-5.09,3.82,3.82,0,0,0-.68,0l-23.64,3.63a5,5,0,0,0-4.06,5v17a13.63,13.63,0,0,0-2.55-.27c-5.62,0-10.18,3.43-10.18,7.66s4.56,7.66,10.18,7.66,10.19-3.43,10.19-7.66Z"/></svg>