<svg id="Layer_1" data-name="Layer 1" xmlns="http://www.w3.org/2000/svg" viewBox="0 0 150 150"><defs><style>.cls-1{fill:#c1272d;}.cls-2{fill:#8f1d21;}.cls-3{fill:#414141;}.cls-4{fill:#ecf0f9;}</style></defs><path class="cls-1" d="M12,35.6v65a8.91,8.91,0,0,0,8.91,8.86H37.37l.27,13.28a1.16,1.16,0,0,0,1.6.37c.15-.09,28.65-13.65,28.65-13.65h59.45a8.86,8.86,0,0,0,8.86-8.86V35.61a8.86,8.86,0,0,0-8.86-8.86H20.9c-8.9,0-8.88,3.92-8.9,8.81Z"/><path class="cls-2" d="M84.77,103.79H128a4.14,4.14,0,0,0,4.14-4.14V29.91a1.52,1.52,0,0,1,1.42-1.6,1.47,1.47,0,0,1,1,.3,8.87,8.87,0,0,1,3.44,7V105c0,.84-2.68,4.52-3.53,4.52H111.71l-25.89-.11-9.06.09H72.49Z"/><path class="cls-3" d="M127.34,26.75a8.86,8.86,0,0,1,8.86,8.86v65a8.86,8.86,0,0,1-8.86,8.86H67.89S39.39,123,39.24,123.07a1.15,1.15,0,0,1-1.6-.37l-.27-13.28H20.91A8.91,8.91,0,0,1,12,100.56v-65c0-4.89,0-8.81,8.9-8.81H127.34m0-4H20.9C8.06,22.75,8,30.71,8,35.47v.07H8v65a13,13,0,0,0,12.91,12.86H33.45l.19,9.36,0,1.11.59.93a5.12,5.12,0,0,0,4.37,2.43,5.24,5.24,0,0,0,2.51-.65c1.44-.7,16.88-8,27.66-13.18h58.55a12.88,12.88,0,0,0,12.86-12.86V35.61a12.88,12.88,0,0,0-12.86-12.86Z"/><path class="cls-4" d="M83.32,81l-1.57-6.26h-.62a12.06,12.06,0,0,1-5.32,4.63A18.6,18.6,0,0,1,67.92,81C62.86,81,59.1,79.65,56.54,77s-3.82-6.57-3.82-11.64V37.67h11.7V62.45c0,3.12.56,5.44,1.63,6.94a6,6,0,0,0,5.25,2.32c3.26,0,5.63-1.07,7.14-3.26s2.19-5.82,2.19-10.89V37.67h11.7V81Z"/><rect class="cls-4" x="52.66" y="87.04" width="39.67" height="5.94"/></svg>