<?xml version="1.0" encoding="utf-8"?>
<!-- Generator: Adobe Illustrator 24.2.3, SVG Export Plug-In . SVG Version: 6.00 Build 0)  -->
<svg version="1.1" id="Layer_1" xmlns="http://www.w3.org/2000/svg" xmlns:xlink="http://www.w3.org/1999/xlink" x="0px" y="0px"
	 viewBox="0 0 200 200" style="enable-background:new 0 0 200 200;" xml:space="preserve">
<style type="text/css">
	.st0{fill:#FFFFFF;}
	.st1{fill:#DF283A;}
	.st2{fill:#28B1D5;}
</style>
<path class="st0" d="M52.9,72.4h96.5v94.2H52.9V72.4z"/>
<path class="st1" d="M128.7,85.5c-8,0-14.4,6.4-14.4,14.4s6.4,14.4,14.4,14.4c8,0,14.4-6.4,14.4-14.4c0,0,0,0,0,0
	C143.1,91.9,136.7,85.5,128.7,85.5z M128.7,108c-4.5,0-8.1-3.6-8.1-8.1s3.6-8.1,8.1-8.1c4.5,0,8.1,3.6,8.1,8.1v0
	C136.8,104.3,133.2,108,128.7,108C128.7,108,128.7,108,128.7,108L128.7,108z M72.9,85.5c-8,0-14.4,6.5-14.4,14.4s6.5,14.4,14.4,14.4
	s14.4-6.5,14.4-14.4l0,0C87.3,91.9,80.9,85.5,72.9,85.5z M72.9,108c-4.5,0-8.1-3.6-8.1-8.1s3.6-8.1,8.1-8.1c4.5,0,8.1,3.6,8.1,8.1
	C81,104.3,77.4,108,72.9,108C72.9,108,72.9,108,72.9,108L72.9,108z"/>
<path class="st2" d="M149,65.2H52.6c-3.6,0-6.5,2.9-6.5,6.5l0,0V168c0,3.6,2.9,6.5,6.5,6.5h0H149c3.6,0,6.5-2.9,6.5-6.5l0,0V71.7
	C155.5,68.1,152.6,65.2,149,65.2L149,65.2z M72.9,79.9c11,0,20,9,20,20s-9,20-20,20s-20-9-20-20S61.8,79.9,72.9,79.9z M143.1,158.5
	H58.5v-22.7h84.6V158.5z M128.7,119.8c-11,0-20-9-20-20s9-20,20-20s20,9,20,20C148.7,110.9,139.7,119.8,128.7,119.8L128.7,119.8z"/>
<path class="st1" d="M72.6,58.7l2.2-34.4h52.1l2.2,34.4H72.6z M183.2,99.3V66.1c4.1-1.8,6-6.6,4.2-10.7c-1.8-4.1-6.6-6-10.7-4.2
	c-4.1,1.8-6,6.6-4.2,10.7c0.8,1.9,2.3,3.4,4.2,4.2v30.5c-4.8-1.7-9.8-3.1-14.8-4.2v44.8c21.7-4.7,36.1-13,36.1-22.4
	C198,109,192.5,103.6,183.2,99.3z M24.9,66.1c4.1-1.8,6-6.6,4.2-10.7c-1.8-4.1-6.6-6-10.7-4.2s-6,6.6-4.2,10.7
	c0.8,1.9,2.3,3.4,4.2,4.2v33.2c-9.3,4.4-14.8,9.7-14.8,15.5c0,9.4,14.4,17.7,36.1,22.4V92.4c-5,1.1-10,2.5-14.8,4.2L24.9,66.1z"/>
<!-- <g>
	<path class="st1" d="M155.5,152.9v6.7l-4.8,3.4v2.4c0,2.6-2.1,4.7-4.7,4.7H55.3c-2.6,0-4.7-2.1-4.7-4.7V163l-4.4-4.3v-6.7l4.4,4.3
		v-19.6l-4.4-4.3v-6.7l4.4,4.3v-2.4c0-2.6,2.1-4.7,4.7-4.7H146c2.6,0,4.7,2.1,4.7,4.7v2.4l4.8-3.4v6.7l-4.8,3.4v19.6L155.5,152.9z
		 M146,165.3v-37.7H55.3v37.7H146z"/>
	<path class="st0" d="M146,127.6v37.7H55.3v-37.7H146z M141.3,158.3c0-1.3-1.1-2.4-2.4-2.4H62.4c0,0,0,0,0,0c-1.3,0-2.4,1.1-2.4,2.4
		c0,1.3,1.1,2.4,2.4,2.4c0,0,0,0,0,0h76.6C140.2,160.6,141.3,159.6,141.3,158.3z M141.3,148.8c0-1.3-1.1-2.4-2.4-2.4H62.3
		c0,0,0,0,0,0c-1.3,0-2.4,1.1-2.4,2.4c0,1.3,1.1,2.4,2.4,2.4c0,0,0,0,0,0h76.6C140.2,151.2,141.3,150.1,141.3,148.8z"/>
	<path class="st1" d="M138.9,155.9c1.3,0,2.4,1.1,2.4,2.4c0,1.3-1.1,2.4-2.4,2.4H62.4c0,0,0,0,0,0c-1.3,0-2.4-1.1-2.4-2.4
		c0-1.3,1.1-2.4,2.4-2.4c0,0,0,0,0,0H138.9z"/>
	<path class="st1" d="M138.9,146.5c1.3,0,2.4,1.1,2.4,2.4c0,1.3-1.1,2.4-2.4,2.4H62.3c0,0,0,0,0,0c-1.3,0-2.4-1.1-2.4-2.4
		c0-1.3,1.1-2.4,2.4-2.4c0,0,0,0,0,0H138.9z"/>
</g> -->
</svg>
