<?xml version="1.0" encoding="utf-8"?>
<!-- Generator: Adobe Illustrator 22.0.1, SVG Export Plug-In . SVG Version: 6.00 Build 0)  -->
<svg version="1.1" id="Layer_1" xmlns="http://www.w3.org/2000/svg" xmlns:xlink="http://www.w3.org/1999/xlink" x="0px" y="0px"
	 viewBox="0 0 113.3 153.8" style="enable-background:new 0 0 113.3 153.8;" xml:space="preserve">
<style type="text/css">
	.st0{fill:#404040;}
	.st1{fill:#F2F2F2;}
	.st2{fill:#C5C6EF;}
	.st3{fill:#385868;}
</style>
<g id="Layer_2_1_">
	<g id="Layer_1-2">
		<g id="Layer_1-2-2">
			<path class="st0" d="M113.3,7.1v139.5c0,3.9-3.2,7.1-7.1,7.1h-99c-3.9,0-7.1-3.2-7.1-7.1V7.1C0,3.2,3.2,0,7.1,0h99
				C110.1,0,113.3,3.2,113.3,7.1z"/>
			<path class="st1" d="M108.8,7.1v139.5c0,1.4-1.2,2.6-2.6,2.6h-2.5l-85.5-8.1c-2.7,0-4.9-2.2-4.9-4.9c0,0,0,0,0,0L5,5.5
				c0.5-0.6,1.3-1,2.1-1h99C107.6,4.5,108.7,5.7,108.8,7.1z M75.9,107.8v-5.3h-51v5.3H75.9z M75.9,45.9v-5.2h-51v5.3L75.9,45.9z
				 M56.6,122.2V117H24.9v5.3H56.6z M56.6,60.3v-5.3H24.9v5.3L56.6,60.3z M56.6,94.3V89H24.9v5.3L56.6,94.3z M56.6,32.5v-5.3H24.9
				v5.3L56.6,32.5z"/>
			<path class="st2" d="M103.7,149.3H7.1c-1.4,0-2.6-1.2-2.6-2.6V7.1C4.5,6.6,4.7,6,5,5.5l8.3,130.8c0,2.7,2.2,4.9,4.9,4.9
				c0,0,0,0,0,0L103.7,149.3z"/>
			<rect x="24.9" y="102.5" class="st3" width="51" height="5.3"/>
			<rect x="24.9" y="40.6" class="st3" width="51" height="5.3"/>
			<rect x="24.9" y="117" class="st3" width="31.8" height="5.3"/>
			<rect x="24.9" y="55.1" class="st3" width="31.8" height="5.3"/>
			<rect x="24.9" y="89" class="st3" width="31.8" height="5.3"/>
			<rect x="24.9" y="27.2" class="st3" width="31.8" height="5.3"/>
		</g>
	</g>
</g>
</svg>
