<?xml version="1.0" encoding="utf-8"?>
<!-- Generator: Adobe Illustrator 24.1.1, SVG Export Plug-In . SVG Version: 6.00 Build 0)  -->
<svg version="1.1" id="Layer_1" xmlns="http://www.w3.org/2000/svg" xmlns:xlink="http://www.w3.org/1999/xlink" x="0px" y="0px"
	 viewBox="0 0 113.3 153.8" style="enable-background:new 0 0 113.3 153.8;" xml:space="preserve">
<style type="text/css">
	.st0{fill:#F2F2F2;}
	.st1{fill:#6363A2;}
	.st2{fill:#C5C6EF;}
	.st3{fill:#404040;}
</style>
<g>
	<path class="st0" d="M106.5,149.3H6.8c-1.1,0-2-0.9-2-2V6.5c0-1.1,0.9-2,2-2h99.8c1.1,0,2,0.9,2,2v140.7
		C108.5,148.4,107.7,149.3,106.5,149.3z"/>
	<rect x="24.1" y="102.5" class="st1" width="51" height="5.3"/>
	<rect x="24.1" y="40.6" class="st1" width="51" height="5.3"/>
	<rect x="24.1" y="117" class="st1" width="31.8" height="5.3"/>
	<rect x="24.1" y="55.1" class="st1" width="31.8" height="5.3"/>
	<rect x="24.1" y="89" class="st1" width="31.8" height="5.3"/>
	<rect x="24.1" y="27.2" class="st1" width="31.8" height="5.3"/>
	<path class="st2" d="M103,150.3H6.4c-1.4,0-2.6-1.2-2.6-2.6V8.1C3.8,7.6,4,7,4.3,6.5l8.3,130.8c0,2.7,2.2,4.9,4.9,4.9l0,0
		L103,150.3z"/>
	<path class="st3" d="M106.6,4.5c1.1,0,2,0.9,2,2v140.7c0,1.1-0.9,2-2,2H6.8c-1.1,0-2-0.9-2-2V6.5c0-1.1,0.9-2,2-2H106.6 M106.6,0.5
		H6.8c-3.3,0-6,2.7-6,6v140.7c0,3.3,2.7,6,6,6h99.8c3.3,0,6-2.7,6-6V6.5C112.6,3.2,109.9,0.5,106.6,0.5L106.6,0.5z"/>
</g>
</svg>
