<?xml version="1.0" encoding="utf-8"?>
<!-- Generator: Adobe Illustrator 23.1.0, SVG Export Plug-In . SVG Version: 6.00 Build 0)  -->
<svg version="1.1" id="Layer_1" xmlns="http://www.w3.org/2000/svg" xmlns:xlink="http://www.w3.org/1999/xlink" x="0px" y="0px"
	 viewBox="0 0 181.7 180.3" style="enable-background:new 0 0 181.7 180.3;" xml:space="preserve">
<style type="text/css">
	.st0{fill:#404040;}
	.st1{fill:#ECF0F9;}
	.st2{fill:#E1978F;}
	.st3{opacity:0.5;}
	.st4{fill:#F3AA9F;}
	.st5{fill:#E7F6FF;}
	.st6{fill:#FFFFFF;}
</style>
<g>
	<g>
		<path class="st0" d="M128.8,161.7"/>
		<path class="st1" d="M25.5,56.8h128.3c5.4,0,9.8,4.4,9.8,9.8v93.6l0,0h-148l0,0V66.6C15.7,61.2,20.1,56.8,25.5,56.8z"/>
		<rect x="23.2" y="64.7" class="st2" width="133.5" height="85.5"/>
		<g class="st3">
			<polygon class="st4" points="67.9,64.4 45.5,150.7 34.3,150.7 56.6,64.4 			"/>
			<polygon class="st4" points="96.6,64.4 74.2,150.7 50.6,150.7 73,64.4 			"/>
		</g>
		<path class="st0" d="M158.5,55H20.8c-3.9,0-7,3.1-7,7V162h151.7V62C165.5,58.2,162.4,55.1,158.5,55z M18.2,63.2
			c0-2.4,1.9-4.3,4.3-4.3h134.3c2.4,0,4.3,1.9,4.3,4.3v94.9H18.2V63.2z"/>
		<path class="st1" d="M4.6,156.3H179l0,0v0.7c0,4.6-3.7,8.3-8.3,8.3H12.9c-4.6,0-8.3-3.7-8.3-8.3V156.3L4.6,156.3z"/>
		<path class="st0" d="M110.8,129"/>
		<path class="st0" d="M2.4,154.7v2c0,5.3,4.3,9.6,9.6,9.6h157.7c5.3,0,9.6-4.3,9.6-9.6v-2H2.4z M174.8,158.1
			c-0.3,2.6-3.3,4.6-6.8,4.6H13.8c-3.6,0-6.5-2-6.8-4.6H174.8z"/>
		<path class="st0" d="M21.6,63.4V151h136.1V63.4H21.6z M26.2,146.9V67.6H153v79.3H26.2z"/>
	</g>
	<g id="Layer_2_1_">
		<g id="Layer_1-2">
			<g id="Layer_1-2-2">
				<g>
					<path class="st5" d="M155.5,57c0,20.9-17,37.8-37.9,37.8c-17.8,0-33.1-12.4-36.9-29.8c-0.4-2.2-0.6-4.4-0.6-6.6
						c0.1-20.9,17-37.8,37.9-37.7c17.7,0.1,33,12.4,36.8,29.7l0,0C155.3,52.6,155.5,54.8,155.5,57z"/>
					<path class="st5" d="M118,3.6c-35,0-56.8,22-56.9,56.7c0,10.7,5.6,27.4,15.4,47.6c4.4,8.5,9.8,18,15.4,27.5
						c6.9,11.7,14.4,23.4,22,34.1l3.8,5.1c1.3-1.6,2.5-3.1,3.8-5c7.6-11,15.2-22.4,22.1-34c5.7-9.4,10.8-18.9,15.2-27.4
						c10.1-20.2,15.8-36.8,15.9-47.6C174.7,26.8,152.1,3.7,118,3.6z M117.8,95.1c-20.9,0-37.8-17-37.7-37.9
						c0-20.9,17-37.8,37.9-37.7c20.9,0,37.8,17,37.7,37.9C155.6,78.2,138.7,95,117.8,95.1z"/>
					<path class="st5" d="M156.6,113.1c-3.9,7.4-8.2,15.3-13,23.3c-7,11.6-14.5,23-22.1,34c-1.3,1.9-2.5,3.5-3.8,5l-3.8-5.1
						c-7.5-10.7-15.1-22.4-22-34.1c-5.7-9.5-11-18.9-15.4-27.5c-9.7-20.1-15.4-36.8-15.4-47.6c0-14.3,3.8-26.5,10.6-35.8
						c-2.8,7.7-4.2,15.8-4.1,24C67.5,60,73.2,76.7,82.9,96.9c4.4,8.5,9.7,18,15.4,27.5c6.9,11.7,14.5,23.3,22,34.1l3.8,5.1
						c1.3-1.6,2.5-3.1,3.8-5c7.6-11,15.2-22.4,22.1-34C152.3,120.7,154.5,116.9,156.6,113.1z"/>
					<path class="st5" d="M117.5,179.1l-5.8-7.8c-7.6-10.8-15.2-22.6-22.1-34.3c-5.9-9.9-11.3-19.4-15.5-27.6v-0.1
						C63.7,87.8,58.5,71.4,58.5,60.6c0-17.8,5.6-32.8,16.1-43.3s25.4-16,43.2-16h0.2c17.4,0,32.3,5.8,43,16.6s16.3,25.6,16.3,42.9
						c0,10.9-5.6,27.8-16.1,48.8l0,0c-4,7.6-9.3,17.6-15.3,27.5c-7.4,12.5-15.4,24.2-22.2,34.1c-1.3,1.9-2.6,3.6-3.9,5.1
						L117.5,179.1z M116,168.2l1.7,2.3c0.5-0.7,1-1.4,1.5-2.2c6.8-9.9,14.7-21.6,22.1-33.9c5.9-9.8,11.2-19.7,15.1-27.3
						C166.6,86.9,172,70.8,172,60.7c0.1-32.4-21.6-54.2-54-54.2h-0.2c-33.3,0-54,20.7-54.1,54c0,9.9,5.2,25.9,15.1,46.5
						c4.2,8.1,9.4,17.5,15.3,27.3C100.9,145.8,108.5,157.6,116,168.2L116,168.2z M117.9,98L117.9,98C95.5,97.6,77.6,79.2,78,56.9
						c0.4-21.9,18-39.5,39.9-39.8h0.1c22.3,0,40.4,18.2,40.4,40.5S140.2,98,117.9,98L117.9,98L117.9,98z M117.9,22.3
						c-19.4,0.3-35,16.3-34.7,35.8c0.3,19,15.6,34.3,34.6,34.7h0.1c19.4-0.3,35-16.3,34.7-35.8C152.2,38,136.9,22.6,117.9,22.3
						L117.9,22.3z"/>
					<path class="st5" d="M163.2,38.6c1.1,2.6,1.9,5.4,2.5,8.2c0.1,0.7,0.2,1.3,0.3,1.9s0.2,1.2,0.3,1.8l0.2,1.7
						c0,0.5,0.1,1.1,0.1,1.5c0,1,0,1.9,0,2.7c0,0.7-0.1,1.3-0.2,2c-0.1,1.1-0.3,1.7-0.5,1.7s-0.4-0.6-0.6-1.7
						c-0.1-0.5-0.2-1.2-0.3-2s-0.3-1.6-0.4-2.5c-0.1-0.5-0.2-1-0.3-1.5l-0.3-1.6c-0.1-0.5-0.3-1.1-0.4-1.7c-0.1-0.6-0.3-1.2-0.4-1.8
						c-0.7-2.6-1.6-5.2-2.6-7.7c-1.1-2.5-2.3-4.9-3.7-7.2l-1-1.5l-1-1.4c-0.3-0.5-0.6-0.9-0.9-1.3s-0.5-0.9-0.8-1.3
						c-2.3-3-3.9-4.9-3.6-5.2s2.3,1,5.1,3.9c0.3,0.4,0.7,0.8,1.1,1.1c0.4,0.3,0.8,0.8,1.1,1.3c0.3,0.5,0.8,0.9,1.1,1.4l1.1,1.6
						C160.7,33.4,162.1,36,163.2,38.6z"/>
					<path class="st5" d="M140.7,13.4c2.5,1.4,4,3.3,3.5,4s-2.6-0.1-5-1.5c-2.4-1.4-4-2.8-3.7-3.5S138.2,12,140.7,13.4z"/>
				</g>
				<g>
					<path class="st6" d="M155.5,57c0,20.9-17,37.8-37.9,37.8c-17.8,0-33.1-12.4-36.9-29.8c-0.4-2.2-0.6-4.4-0.6-6.6
						c0.1-20.9,17-37.8,37.9-37.7c17.7,0.1,33,12.4,36.8,29.7l0,0C155.3,52.6,155.5,54.8,155.5,57z"/>
					<path class="st4" d="M118,3.6c-35,0-56.8,22-56.9,56.7c0,10.7,5.6,27.4,15.4,47.6c4.4,8.5,9.8,18,15.4,27.5
						c6.9,11.7,14.4,23.4,22,34.1l3.8,5.1c1.3-1.6,2.5-3.1,3.8-5c7.6-11,15.2-22.4,22.1-34c5.7-9.4,10.8-18.9,15.2-27.4
						c10.1-20.2,15.8-36.8,15.9-47.6C174.7,26.8,152.1,3.7,118,3.6z M117.8,95.1c-20.9,0-37.8-17-37.7-37.9
						c0-20.9,17-37.8,37.9-37.7c20.9,0,37.8,17,37.7,37.9C155.6,78.2,138.7,95,117.8,95.1z"/>
					<path class="st2" d="M156.6,113.1c-3.9,7.4-8.2,15.3-13,23.3c-7,11.6-14.5,23-22.1,34c-1.3,1.9-2.5,3.5-3.8,5l-3.8-5.1
						c-7.5-10.7-15.1-22.4-22-34.1c-5.7-9.5-11-18.9-15.4-27.5c-9.7-20.1-15.4-36.8-15.4-47.6c0-14.3,3.8-26.5,10.6-35.8
						c-2.8,7.7-4.2,15.8-4.1,24C67.5,60,73.2,76.7,82.9,96.9c4.4,8.5,9.7,18,15.4,27.5c6.9,11.7,14.5,23.3,22,34.1l3.8,5.1
						c1.3-1.6,2.5-3.1,3.8-5c7.6-11,15.2-22.4,22.1-34C152.3,120.7,154.5,116.9,156.6,113.1z"/>
					<path class="st0" d="M117.5,179.1l-5.8-7.8c-7.6-10.8-15.2-22.6-22.1-34.3c-5.9-9.9-11.3-19.4-15.5-27.6v-0.1
						C63.7,87.8,58.5,71.4,58.5,60.6c0-17.8,5.6-32.8,16.1-43.3s25.4-16,43.2-16h0.2c17.4,0,32.3,5.8,43,16.6s16.3,25.6,16.3,42.9
						c0,10.9-5.6,27.8-16.1,48.8l0,0c-4,7.6-9.3,17.6-15.3,27.5c-7.4,12.5-15.4,24.2-22.2,34.1c-1.3,1.9-2.6,3.6-3.9,5.1
						L117.5,179.1z M116,168.2l1.7,2.3c0.5-0.7,1-1.4,1.5-2.2c6.8-9.9,14.7-21.6,22.1-33.9c5.9-9.8,11.2-19.7,15.1-27.3
						C166.6,86.9,172,70.8,172,60.7c0.1-32.4-21.6-54.2-54-54.2h-0.2c-33.3,0-54,20.7-54.1,54c0,9.9,5.2,25.9,15.1,46.5
						c4.2,8.1,9.4,17.5,15.3,27.3C100.9,145.8,108.5,157.6,116,168.2L116,168.2z M117.9,98L117.9,98C95.5,97.6,77.6,79.2,78,56.9
						c0.4-21.9,18-39.5,39.9-39.8h0.1c22.3,0,40.4,18.2,40.4,40.5S140.2,98,117.9,98L117.9,98L117.9,98z M117.9,22.3
						c-19.4,0.3-35,16.3-34.7,35.8c0.3,19,15.6,34.3,34.6,34.7h0.1c19.4-0.3,35-16.3,34.7-35.8C152.2,38,136.9,22.6,117.9,22.3
						L117.9,22.3z"/>
					<path class="st6" d="M163.2,38.6c1.1,2.6,1.9,5.4,2.5,8.2c0.1,0.7,0.2,1.3,0.3,1.9s0.2,1.2,0.3,1.8l0.2,1.7
						c0,0.5,0.1,1.1,0.1,1.5c0,1,0,1.9,0,2.7c0,0.7-0.1,1.3-0.2,2c-0.1,1.1-0.3,1.7-0.5,1.7s-0.4-0.6-0.6-1.7
						c-0.1-0.5-0.2-1.2-0.3-2s-0.3-1.6-0.4-2.5c-0.1-0.5-0.2-1-0.3-1.5l-0.3-1.6c-0.1-0.5-0.3-1.1-0.4-1.7c-0.1-0.6-0.3-1.2-0.4-1.8
						c-0.7-2.6-1.6-5.2-2.6-7.7c-1.1-2.5-2.3-4.9-3.7-7.2l-1-1.5l-1-1.4c-0.3-0.5-0.6-0.9-0.9-1.3s-0.5-0.9-0.8-1.3
						c-2.3-3-3.9-4.9-3.6-5.2s2.3,1,5.1,3.9c0.3,0.4,0.7,0.8,1.1,1.1c0.4,0.3,0.8,0.8,1.1,1.3c0.3,0.5,0.8,0.9,1.1,1.4l1.1,1.6
						C160.7,33.4,162.1,36,163.2,38.6z"/>
					<path class="st6" d="M140.7,13.4c2.5,1.4,4,3.3,3.5,4s-2.6-0.1-5-1.5c-2.4-1.4-4-2.8-3.7-3.5S138.2,12,140.7,13.4z"/>
				</g>
			</g>
		</g>
	</g>
</g>
</svg>
