<?xml version="1.0" encoding="utf-8"?>
<!-- Generator: Adobe Illustrator 22.0.1, SVG Export Plug-In . SVG Version: 6.00 Build 0)  -->
<svg version="1.1" id="Layer_1" xmlns="http://www.w3.org/2000/svg" xmlns:xlink="http://www.w3.org/1999/xlink" x="0px" y="0px"
	 viewBox="0 0 118.7 177.8" style="enable-background:new 0 0 118.7 177.8;" xml:space="preserve">
<style type="text/css">
	.st0{fill:#E7F6FF;}
	.st1{fill:#FFFFFF;}
	.st2{fill:#F3AA9F;}
	.st3{fill:#E1978F;}
	.st4{fill:#404040;}
</style>
<g id="Layer_2_1_">
	<g id="Layer_1-2">
		<g id="Layer_1-2-2">
			<g>
				<path class="st0" d="M97,55.7c0,20.9-17,37.8-37.9,37.8c-17.8,0-33.1-12.4-36.9-29.8c-0.4-2.2-0.6-4.4-0.6-6.6
					c0.1-20.9,17-37.8,37.9-37.7c17.7,0.1,33,12.4,36.8,29.7l0,0C96.8,51.3,97,53.5,97,55.7z"/>
				<path class="st0" d="M59.5,2.3C24.5,2.3,2.7,24.3,2.6,59c0,10.7,5.6,27.4,15.4,47.6c4.4,8.5,9.8,18,15.4,27.5
					c6.9,11.7,14.4,23.4,22,34.1l3.8,5.1c1.3-1.6,2.5-3.1,3.8-5c7.6-11,15.2-22.4,22.1-34c5.7-9.4,10.8-18.9,15.2-27.4
					c10.1-20.2,15.8-36.8,15.9-47.6C116.2,25.5,93.6,2.4,59.5,2.3z M59.3,93.8c-20.9,0-37.8-17-37.7-37.9c0-20.9,17-37.8,37.9-37.7
					c20.9,0,37.8,17,37.7,37.9C97.1,76.9,80.2,93.7,59.3,93.8z"/>
				<path class="st0" d="M98.1,111.8c-3.9,7.4-8.2,15.3-13,23.3c-7,11.6-14.5,23-22.1,34c-1.3,1.9-2.5,3.5-3.8,5l-3.8-5.1
					c-7.5-10.7-15.1-22.4-22-34.1c-5.7-9.5-11-18.9-15.4-27.5C8.3,87.3,2.6,70.6,2.6,59.8c0-14.3,3.8-26.5,10.6-35.8
					C10.4,31.7,9,39.8,9.1,48C9,58.7,14.7,75.4,24.4,95.6c4.4,8.5,9.7,18,15.4,27.5c6.9,11.7,14.5,23.3,22,34.1l3.8,5.1
					c1.3-1.6,2.5-3.1,3.8-5c7.6-11,15.2-22.4,22.1-34C93.8,119.4,96,115.6,98.1,111.8z"/>
				<path class="st0" d="M59,177.8l-5.8-7.8c-7.6-10.8-15.2-22.6-22.1-34.3c-5.9-9.9-11.3-19.4-15.5-27.6V108
					C5.2,86.5,0,70.1,0,59.3C0,41.5,5.6,26.5,16.1,16S41.5,0,59.3,0h0.2c17.4,0,32.3,5.8,43,16.6s16.3,25.6,16.3,42.9
					c0,10.9-5.6,27.8-16.1,48.8l0,0c-4,7.6-9.3,17.6-15.3,27.5c-7.4,12.5-15.4,24.2-22.2,34.1c-1.3,1.9-2.6,3.6-3.9,5.1L59,177.8z
					 M57.5,166.9l1.7,2.3c0.5-0.7,1-1.4,1.5-2.2c6.8-9.9,14.7-21.6,22.1-33.9c5.9-9.8,11.2-19.7,15.1-27.3
					c10.2-20.2,15.6-36.3,15.6-46.4c0.1-32.4-21.6-54.2-54-54.2h-0.2c-33.3,0-54,20.7-54.1,54c0,9.9,5.2,25.9,15.1,46.5
					c4.2,8.1,9.4,17.5,15.3,27.3C42.4,144.5,50,156.3,57.5,166.9L57.5,166.9z M59.4,96.7L59.4,96.7c-22.4-0.4-40.3-18.8-39.9-41.1
					c0.4-21.9,18-39.5,39.9-39.8h0.1c22.3,0,40.4,18.2,40.4,40.5C99.9,78.6,81.7,96.7,59.4,96.7L59.4,96.7L59.4,96.7z M59.4,21
					c-19.4,0.3-35,16.3-34.7,35.8c0.3,19,15.6,34.3,34.6,34.7h0.1c19.4-0.3,35-16.3,34.7-35.8C93.7,36.7,78.4,21.3,59.4,21L59.4,21z
					"/>
				<path class="st0" d="M104.7,37.3c1.1,2.6,1.9,5.4,2.5,8.2c0.1,0.7,0.2,1.3,0.3,1.9s0.2,1.2,0.3,1.8l0.2,1.7
					c0,0.5,0.1,1.1,0.1,1.5c0,1,0,1.9,0,2.7c0,0.7-0.1,1.3-0.2,2c-0.1,1.1-0.3,1.7-0.5,1.7s-0.4-0.6-0.6-1.7c-0.1-0.5-0.2-1.2-0.3-2
					s-0.3-1.6-0.4-2.5c-0.1-0.5-0.2-1-0.3-1.5l-0.3-1.6c-0.1-0.5-0.3-1.1-0.4-1.7s-0.3-1.2-0.4-1.8c-0.7-2.6-1.6-5.2-2.6-7.7
					c-1.1-2.5-2.3-4.9-3.7-7.2l-1-1.5l-1-1.4c-0.3-0.5-0.6-0.9-0.9-1.3S95,26,94.7,25.6c-2.3-3-3.9-4.9-3.6-5.2s2.3,1,5.1,3.9
					c0.3,0.4,0.7,0.8,1.1,1.1s0.8,0.8,1.1,1.3s0.8,0.9,1.1,1.4l1.1,1.6C102.2,32.1,103.6,34.7,104.7,37.3z"/>
				<path class="st0" d="M82.2,12.1c2.5,1.4,4,3.3,3.5,4s-2.6-0.1-5-1.5s-4-2.8-3.7-3.5S79.7,10.7,82.2,12.1z"/>
			</g>
			<g>
				<path class="st1" d="M97,55.7c0,20.9-17,37.8-37.9,37.8c-17.8,0-33.1-12.4-36.9-29.8c-0.4-2.2-0.6-4.4-0.6-6.6
					c0.1-20.9,17-37.8,37.9-37.7c17.7,0.1,33,12.4,36.8,29.7l0,0C96.8,51.3,97,53.5,97,55.7z"/>
				<path class="st2" d="M59.5,2.3C24.5,2.3,2.7,24.3,2.6,59c0,10.7,5.6,27.4,15.4,47.6c4.4,8.5,9.8,18,15.4,27.5
					c6.9,11.7,14.4,23.4,22,34.1l3.8,5.1c1.3-1.6,2.5-3.1,3.8-5c7.6-11,15.2-22.4,22.1-34c5.7-9.4,10.8-18.9,15.2-27.4
					c10.1-20.2,15.8-36.8,15.9-47.6C116.2,25.5,93.6,2.4,59.5,2.3z M59.3,93.8c-20.9,0-37.8-17-37.7-37.9c0-20.9,17-37.8,37.9-37.7
					c20.9,0,37.8,17,37.7,37.9C97.1,76.9,80.2,93.7,59.3,93.8z"/>
				<path class="st3" d="M98.1,111.8c-3.9,7.4-8.2,15.3-13,23.3c-7,11.6-14.5,23-22.1,34c-1.3,1.9-2.5,3.5-3.8,5l-3.8-5.1
					c-7.5-10.7-15.1-22.4-22-34.1c-5.7-9.5-11-18.9-15.4-27.5C8.3,87.3,2.6,70.6,2.6,59.8c0-14.3,3.8-26.5,10.6-35.8
					C10.4,31.7,9,39.8,9.1,48C9,58.7,14.7,75.4,24.4,95.6c4.4,8.5,9.7,18,15.4,27.5c6.9,11.7,14.5,23.3,22,34.1l3.8,5.1
					c1.3-1.6,2.5-3.1,3.8-5c7.6-11,15.2-22.4,22.1-34C93.8,119.4,96,115.6,98.1,111.8z"/>
				<path class="st4" d="M59,177.8l-5.8-7.8c-7.6-10.8-15.2-22.6-22.1-34.3c-5.9-9.9-11.3-19.4-15.5-27.6V108
					C5.2,86.5,0,70.1,0,59.3C0,41.5,5.6,26.5,16.1,16S41.5,0,59.3,0h0.2c17.4,0,32.3,5.8,43,16.6s16.3,25.6,16.3,42.9
					c0,10.9-5.6,27.8-16.1,48.8l0,0c-4,7.6-9.3,17.6-15.3,27.5c-7.4,12.5-15.4,24.2-22.2,34.1c-1.3,1.9-2.6,3.6-3.9,5.1L59,177.8z
					 M57.5,166.9l1.7,2.3c0.5-0.7,1-1.4,1.5-2.2c6.8-9.9,14.7-21.6,22.1-33.9c5.9-9.8,11.2-19.7,15.1-27.3
					c10.2-20.2,15.6-36.3,15.6-46.4c0.1-32.4-21.6-54.2-54-54.2h-0.2c-33.3,0-54,20.7-54.1,54c0,9.9,5.2,25.9,15.1,46.5
					c4.2,8.1,9.4,17.5,15.3,27.3C42.4,144.5,50,156.3,57.5,166.9L57.5,166.9z M59.4,96.7L59.4,96.7c-22.4-0.4-40.3-18.8-39.9-41.1
					c0.4-21.9,18-39.5,39.9-39.8h0.1c22.3,0,40.4,18.2,40.4,40.5C99.9,78.6,81.7,96.7,59.4,96.7L59.4,96.7L59.4,96.7z M59.4,21
					c-19.4,0.3-35,16.3-34.7,35.8c0.3,19,15.6,34.3,34.6,34.7h0.1c19.4-0.3,35-16.3,34.7-35.8C93.7,36.7,78.4,21.3,59.4,21L59.4,21z
					"/>
				<path class="st1" d="M104.7,37.3c1.1,2.6,1.9,5.4,2.5,8.2c0.1,0.7,0.2,1.3,0.3,1.9s0.2,1.2,0.3,1.8l0.2,1.7
					c0,0.5,0.1,1.1,0.1,1.5c0,1,0,1.9,0,2.7c0,0.7-0.1,1.3-0.2,2c-0.1,1.1-0.3,1.7-0.5,1.7s-0.4-0.6-0.6-1.7c-0.1-0.5-0.2-1.2-0.3-2
					s-0.3-1.6-0.4-2.5c-0.1-0.5-0.2-1-0.3-1.5l-0.3-1.6c-0.1-0.5-0.3-1.1-0.4-1.7s-0.3-1.2-0.4-1.8c-0.7-2.6-1.6-5.2-2.6-7.7
					c-1.1-2.5-2.3-4.9-3.7-7.2l-1-1.5l-1-1.4c-0.3-0.5-0.6-0.9-0.9-1.3S95,26,94.7,25.6c-2.3-3-3.9-4.9-3.6-5.2s2.3,1,5.1,3.9
					c0.3,0.4,0.7,0.8,1.1,1.1s0.8,0.8,1.1,1.3s0.8,0.9,1.1,1.4l1.1,1.6C102.2,32.1,103.6,34.7,104.7,37.3z"/>
				<path class="st1" d="M82.2,12.1c2.5,1.4,4,3.3,3.5,4s-2.6-0.1-5-1.5s-4-2.8-3.7-3.5S79.7,10.7,82.2,12.1z"/>
			</g>
		</g>
	</g>
</g>
</svg>
