<?xml version="1.0" encoding="utf-8"?>
<!-- Generator: Adobe Illustrator 22.0.1, SVG Export Plug-In . SVG Version: 6.00 Build 0)  -->
<svg version="1.1" id="Layer_1" xmlns="http://www.w3.org/2000/svg" xmlns:xlink="http://www.w3.org/1999/xlink" x="0px" y="0px"
	 viewBox="0 0 115.5 159.1" style="enable-background:new 0 0 115.5 159.1;" xml:space="preserve">
<style type="text/css">
	.st0{fill:#6AE184;}
	.st1{fill:#389D9C;}
	.st2{fill:#404040;}
	.st3{fill:#A8FF8C;}
	.st4{fill:#32CAF8;}
	.st5{fill:#00A3EB;}
	.st6{fill:#FFFFFF;}
</style>
<g id="Layer_2_1_">
	<g id="Layer_1-2">
		<g id="Layer_1-2-2">
			<path class="st0" d="M13.6,2.6h88.2c6.3,0,11.4,5.1,11.4,11.4v131.8c0,6.3-5.1,11.4-11.4,11.4H13.6c-6.3,0-11.4-5.1-11.4-11.4V14
				C2.3,7.7,7.3,2.6,13.6,2.6z"/>
			<path class="st1" d="M113.3,9.3l-1.1,139.5c0,3.1-2.6,5.7-5.7,5.7l-96,2.2c-3.1,0-4.9-0.6-4.9-3.8c0,0,6.5,2,6.6,2l87.9-3.8
				c3.1,0,5.7-2.6,5.7-5.7V5.1c0-0.8,0.6-1.4,1.4-1.4h0.3C110.7,3.7,113.2,6.2,113.3,9.3z"/>
			<rect x="26.2" y="3.7" class="st2" width="4.5" height="153.2"/>
			<rect x="30.7" y="3.7" class="st3" width="2.6" height="153.2"/>
			<path class="st4" d="M49.1,4.4v41.1c0,0.9,0.8,1.7,1.7,1.7c0.5,0,0.9-0.2,1.2-0.5l9.9-9.9c0.7-0.7,1.7-0.7,2.4,0l10,10
				c0.7,0.7,1.7,0.7,2.4,0c0,0,0,0,0,0c0.3-0.3,0.5-0.7,0.5-1.2V4.4"/>
			<path class="st5" d="M76,4v41.3c0,0.9-0.7,1.7-1.7,1.7c-0.5,0-0.9-0.2-1.2-0.5l-1.4-1.4V4H76z"/>
			<path class="st2" d="M75.4,49.6c-1,0-2.1-0.4-2.8-1.2L63,38.8l-9.5,9.5c-1.5,1.5-4,1.6-5.6,0c-0.7-0.7-1.2-1.8-1.2-2.8V4.4h4.5
				v39.8l8.9-8.9c1.6-1.5,4-1.5,5.6,0l0,0l9,9V4.4h4.5v41.3C79.3,47.8,77.5,49.5,75.4,49.6z"/>
			
				<ellipse transform="matrix(0.9998 -1.797592e-02 1.797592e-02 0.9998 -0.309 0.1949)" class="st6" cx="10.7" cy="17.3" rx="1.4" ry="7.2"/>
			
				<ellipse transform="matrix(0.9998 -1.797592e-02 1.797592e-02 0.9998 -0.5609 0.2007)" class="st6" cx="10.9" cy="31.3" rx="1.4" ry="3.6"/>
			<path class="st2" d="M100.8,159.1h-86c-8.1,0-14.8-6.6-14.8-14.7c0,0,0,0,0,0V14.7C0,6.6,6.6,0,14.7,0h86
				c8.1,0,14.8,6.6,14.8,14.7c0,0,0,0,0,0v129.7C115.5,152.5,108.9,159.1,100.8,159.1z M14.7,4.5C9.1,4.5,4.5,9.1,4.5,14.7v129.7
				c0,5.6,4.6,10.2,10.2,10.2h86c5.7,0,10.3-4.6,10.3-10.2c0,0,0,0,0,0V14.7c0-5.6-4.6-10.2-10.2-10.2H14.7z"/>
		</g>
	</g>
</g>
</svg>
