<?xml version="1.0" encoding="utf-8"?>
<!-- Generator: Adobe Illustrator 23.1.0, SVG Export Plug-In . SVG Version: 6.00 Build 0)  -->
<svg version="1.1" id="Layer_1" xmlns="http://www.w3.org/2000/svg" xmlns:xlink="http://www.w3.org/1999/xlink" x="0px" y="0px"
	 viewBox="0 0 181.7 119.7" style="enable-background:new 0 0 181.7 119.7;" xml:space="preserve">
<style type="text/css">
	.st0{fill:#404040;}
	.st1{fill:#ECF0F9;}
	.st2{fill:#E1978F;}
	.st3{opacity:0.5;}
	.st4{fill:#F3AA9F;}
</style>
<g>
	<path class="st0" d="M128.8,110.6"/>
	<path class="st1" d="M25.5,5.7h128.3c5.4,0,9.8,4.4,9.8,9.8v93.6l0,0h-148l0,0V15.6C15.7,10.1,20.1,5.7,25.5,5.7z"/>
	<rect x="23.2" y="13.7" class="st2" width="133.5" height="85.5"/>
	<g class="st3">
		<polygon class="st4" points="67.9,13.3 45.5,99.6 34.3,99.6 56.6,13.3 		"/>
		<polygon class="st4" points="96.6,13.3 74.2,99.6 50.6,99.6 73,13.3 		"/>
	</g>
	<path class="st0" d="M158.5,4H20.8c-3.9,0-7,3.1-7,7v99.9h151.7V11C165.5,7.1,162.4,4,158.5,4z M18.2,12.2c0-2.4,1.9-4.3,4.3-4.3
		h134.3c2.4,0,4.3,1.9,4.3,4.3V107H18.2V12.2z"/>
	<path class="st1" d="M4.6,105.3H179l0,0v0.7c0,4.6-3.7,8.3-8.3,8.3H12.9c-4.6,0-8.3-3.7-8.3-8.3V105.3L4.6,105.3z"/>
	<path class="st0" d="M110.8,78"/>
	<path class="st0" d="M2.4,103.7v2c0,5.3,4.3,9.6,9.6,9.6h157.7c5.3,0,9.6-4.3,9.6-9.6v-2H2.4z M174.8,107.1
		c-0.3,2.6-3.3,4.6-6.8,4.6H13.8c-3.6,0-6.5-2-6.8-4.6H174.8z"/>
	<path class="st0" d="M21.6,12.4V100h136.1V12.4H21.6z M26.2,95.8V16.5H153v79.3H26.2z"/>
</g>
</svg>
