<?xml version="1.0" encoding="utf-8"?>
<!-- Generator: Adobe Illustrator 22.0.1, SVG Export Plug-In . SVG Version: 6.00 Build 0)  -->
<svg version="1.1" id="Layer_1" xmlns="http://www.w3.org/2000/svg" xmlns:xlink="http://www.w3.org/1999/xlink" x="0px" y="0px"
	 viewBox="0 0 133.9 157.4" style="enable-background:new 0 0 133.9 157.4;" xml:space="preserve">
<style type="text/css">
	.st0{fill:#FFA546;}
	.st1{opacity:0.4;fill:#FF6059;enable-background:new    ;}
	.st2{fill:#404040;}
	.st3{fill:#FFD947;}
</style>
<g id="Layer_2_1_">
	<g id="Layer_1-2">
		<g id="Layer_1-2-2">
			<path class="st0" d="M131.6,142.8v6.6c0,3.2-2.6,5.8-5.8,5.8H8.1c-3.2,0-5.8-2.6-5.8-5.8v-6.6c0-3.2,2.6-5.8,5.8-5.8h117.8
				C129,137,131.6,139.6,131.6,142.8z"/>
			<path class="st1" d="M131.6,152.6c0,1.5-2.6,2.7-5.8,2.7H8.1c-3.2,0-5.8-1.2-5.8-2.7v-9.8c0-3.2,2.6-5.8,5.8-5.8h6.1l1.3,9.5
				c0,1.5,2.6,2.7,5.8,2.7l106.4,4.7l2.8-0.9L131.6,152.6z"/>
			<path class="st2" d="M125.8,157.4H8.1c-4.4,0-8-3.6-8-8v-6.6c0-4.4,3.6-8,8.1-8.1h117.7c4.4,0,8,3.6,8.1,8.1v6.6
				C133.9,153.8,130.3,157.4,125.8,157.4L125.8,157.4z M8.1,139.2c-2,0-3.5,1.6-3.6,3.6v6.6c0,2,1.6,3.5,3.6,3.6h117.8
				c2,0,3.5-1.6,3.5-3.6v-6.6c0-2-1.6-3.5-3.6-3.6H8.1z"/>
			<path class="st0" d="M93,51.8h-5.5V15.6c0-7.4-6-13.4-13.4-13.4c0,0,0,0,0,0H59.8c-7.4,0-13.4,6-13.4,13.4c0,0,0,0,0,0v36.1h-5.5
				c-7.8,0-14.2,6.3-14.2,14.2c0,2.5,0.7,4.9,1.9,7.1l13,22.6L52.9,115c4.5,7.7,14.4,10.4,22.1,5.9c2.4-1.4,4.5-3.4,5.9-5.9
				l11.3-19.5l13-22.5c3.9-6.7,1.7-15.4-5.1-19.3C98,52.4,95.5,51.8,93,51.8z"/>
			<path class="st1" d="M105.2,70.5l-13,22.6L81,112.6c-4.2,7.3-25,12.3-19.7,7.1c22.6-22.2,39.1-68.3,39.1-68.3
				C107,55.3,109.1,63.9,105.2,70.5z"/>
			<path class="st3" d="M72.1,2.3l-0.2,0.3c-14.6,16.9-6.9,43.7-16.1,64C52,75,44.9,82.1,36.3,85.1l-7-12.1
				c-3.9-6.8-1.6-15.4,5.2-19.4c2.1-1.2,4.6-1.9,7.1-1.9H47V15.6c0-7.4,6-13.4,13.4-13.4c0,0,0,0,0,0H72.1z"/>
			<path class="st2" d="M66.9,125.4L66.9,125.4c-6.6,0-12.7-3.5-16-9.2L26.7,74.1c-4.5-7.8-1.9-17.9,6-22.4c2.5-1.4,5.3-2.2,8.2-2.2
				h3.3V15.6C44.2,7,51.2,0,59.8,0h14.3c8.6,0,15.6,7,15.6,15.6v33.9H93c9.1,0,16.4,7.3,16.4,16.4c0,2.9-0.8,5.7-2.2,8.2l-24.3,42.1
				C79.6,121.9,73.5,125.4,66.9,125.4z M40.9,54C34.3,54,29,59.3,29,65.9c0,2.1,0.6,4.2,1.6,6L54.9,114c3.8,6.7,12.4,8.9,19,5.1
				c2.1-1.2,3.9-3,5.1-5.1l24.3-42.1c3.3-5.7,1.4-13-4.3-16.3c-1.8-1.1-3.9-1.6-6-1.6h-7.8V15.6c0-6.2-5-11.1-11.1-11.1H59.8
				c-6.1,0-11.1,5-11.1,11.1V54H40.9z"/>
		</g>
	</g>
</g>
</svg>
